<svg xmlns:dc="http://purl.org/dc/elements/1.1/" xmlns:cc="http://creativecommons.org/ns#" xmlns:rdf="http://www.w3.org/1999/02/22-rdf-syntax-ns#" xmlns:svg="http://www.w3.org/2000/svg" xmlns="http://www.w3.org/2000/svg" xmlns:sodipodi="http://sodipodi.sourceforge.net/DTD/sodipodi-0.dtd" xmlns:inkscape="http://www.inkscape.org/namespaces/inkscape" width="100" height="100" viewBox="0 0 80 80" version="1.1" id="svg2" inkscape:version="0.48.2 r9819" sodipodi:docname="hand plane.svg">
  <metadata id="metadata10">
    <rdf:RDF>
      <cc:Work rdf:about="">
        <dc:format>image/svg+xml</dc:format>
        <dc:type rdf:resource="http://purl.org/dc/dcmitype/StillImage"/>
        <dc:title/>
      </cc:Work>
    </rdf:RDF>
  </metadata>
  <defs id="defs8"/>
  <sodipodi:namedview pagecolor="#ffffff" bordercolor="#666666" borderopacity="1" objecttolerance="10" gridtolerance="10" guidetolerance="10" inkscape:pageopacity="0" inkscape:pageshadow="2" inkscape:window-width="1366" inkscape:window-height="706" id="namedview6" showgrid="false" inkscape:zoom="3.6557421" inkscape:cx="50" inkscape:cy="71.638774" inkscape:window-x="-8" inkscape:window-y="-8" inkscape:window-maximized="1" inkscape:current-layer="svg2"/>
  <path d="m 61.326645,16.464859 c 0.230194,-0.218083 0.745102,-0.599719 0.745102,-0.599719 0,0 0.266544,0.381636 0.399816,0.575489 -0.351356,0.333175 -0.720876,0.64818 -1.072232,0.9753 0.127217,0.260484 0.29078,0.508853 0.381646,0.793572 0.242309,0.587604 0.06663,1.26002 -0.272599,1.768872 -0.430107,0.539144 -1.120687,0.805683 -1.780993,0.95107 -0.502792,0.121157 -1.623855,-0.09824 -1.623855,-0.09824 0,0 -6.353053,5.892018 -9.473998,8.688183 0,0 0.272599,0.460392 0.333174,0.720876 0.0727,0.34529 -0.12115,0.660295 -0.315005,0.926839 -0.327119,0.478568 -0.781451,0.884439 -0.987413,1.441752 -0.308949,0.732992 -0.321068,1.550795 -0.545206,2.308016 -0.07875,0.2726 -0.266536,0.502798 -0.496738,0.666356 0.0061,0.284714 0.04241,0.569433 0.04241,0.854148 -0.04847,0.63001 -0.399816,1.211559 -0.357411,1.859739 0.05452,0.508853 0.133272,1.060111 0.478569,1.465983 0.0424,-0.575489 0.04847,-1.150978 0.06664,-1.732527 1.017704,-0.09087 2.041471,-0.07875 3.059174,0.0061 0.163564,0.139327 0.08481,0.399811 0.109044,0.581549 -0.01215,2.477633 0.139327,4.949207 0.0061,7.42078 -0.581541,0 -1.16309,0.01213 -1.73858,0.03028 0,0.04847 0,0.139328 0,0.187793 3.158977,0.7855 9.935779,2.338035 12.333645,-0.636076 0.514913,-0.623949 1.072227,-1.272134 1.25396,-2.083877 0.157502,-0.860203 -0.09692,-1.756757 -0.59972,-2.459458 -0.811742,-1.278195 -1.811278,-2.423113 -2.726002,-3.628611 -1.175208,-1.671951 -2.604845,-3.17428 -3.55592,-4.997673 -0.745107,-1.532619 -0.860203,-3.319667 -0.533083,-4.985557 0.0727,-0.411927 0.08481,-0.902609 0.448277,-1.187324 0.490677,-0.430101 1.066171,-0.751166 1.593194,-1.132807 4.045364,-2.624058 8.728182,-4.434615 13.296837,-5.361138 0.533083,-0.05452 1.054051,-0.448272 1.599254,-0.29077 -0.139332,0.563374 -0.302889,1.138863 -0.617894,1.62954 -0.260484,0.478568 -0.763282,0.739052 -1.157038,1.090402 -0.430102,0.381641 -0.854148,0.763282 -1.266075,1.163093 -0.781457,0.835978 -1.060111,2.011186 -1.102517,3.125819 -0.08481,1.181268 0.199908,2.344361 0.62395,3.434763 0.454337,1.344826 1.459928,2.392822 2.338306,3.471109 0.696646,0.872318 1.502329,1.647715 2.283786,2.441288 5.664243,5.256487 6.728677,11.388034 5.991144,18.561048 -0.05452,0.357405 -0.763282,0.557313 -0.763282,0.557313 L 0.42780662,55.1074 c 0,0 0.04846,-1.066171 0.199907,-1.581084 0.260485,-0.545199 0.56337398,-1.072227 0.90260998,-1.575025 0.357409,-0.551258 1.029823,-0.732991 1.568965,-1.02982 0.920784,-0.539144 1.877912,-1.005591 2.883503,-1.356947 -0.199903,-0.811742 -0.745106,-1.472037 -1.199438,-2.156568 -0.290774,-0.424047 -0.508854,-0.890494 -0.835975,-1.28425 -0.520969,-0.648185 -0.87232,-1.417522 -1.387232,-2.065702 -3.7194262,-7.582472 11.2698004,-7.784054 14.7809914,-5.149116 0.726932,0.63001 1.138863,1.538679 1.441753,2.435233 0.387696,1.272135 -0.248369,2.56244 -0.945015,3.598321 -0.411931,0.763282 -1.126747,1.356946 -1.387231,2.198974 0.514913,-0.01814 0.969245,-0.30289 1.423577,-0.520968 1.090402,-0.557314 2.108107,-1.235789 3.137933,-1.896085 1.308481,-0.775397 2.532155,-1.671951 3.82852,-2.471578 0.551258,-0.369526 1.205498,-0.533083 1.805218,-0.805683 4.770921,-1.369133 7.484932,-5.245295 10.916124,-8.820131 0.769337,-0.9329 1.738582,-1.659836 2.623021,-2.471579 0.660301,-0.551258 1.320594,-1.114632 2.047533,-1.581079 0.242308,-0.163563 0.490675,-0.315005 0.696644,-0.520968 0.242308,-0.357411 0.308946,-0.799628 0.539139,-1.163098 1.780215,-2.827019 4.770908,-6.009967 8.341571,-5.312673 0.35135,0.115097 0.787512,0.290775 0.890493,0.690586 0.04847,0.224138 -0.224138,0.308945 -0.363465,0.399811 -0.963195,0.442222 -1.999074,0.732996 -2.901683,1.29031 -0.696644,0.533083 -1.369055,1.193384 -1.635599,2.053587 -0.04241,0.672415 -0.0061,1.350886 -0.193847,2.011186 0.109039,0.07875 0.212024,0.163558 0.32106,0.248369 0.623954,-0.545198 1.217614,-1.126747 1.835509,-1.684066 0.496738,-0.448272 0.920784,-0.969245 1.459928,-1.369056 0.205963,-0.06058 0.623949,-0.03028 0.623949,-0.03028 0,0 6.606776,-5.847833 9.480427,-8.723205 m -16.846741,20.45712 c -0.545198,0.793568 -1.375114,1.296365 -2.077817,1.926375 -0.175678,0.460392 -0.248367,0.993476 -0.06058,1.465983 0.09692,0.236254 0.393757,0.248369 0.599722,0.296835 0.06058,-0.205969 0.127213,-0.417992 0.193851,-0.623955 0.351348,0 0.726932,-0.02421 1.041936,0.169617 0.315005,-0.296829 0.533089,-0.696645 0.563372,-1.132802 0.06664,-0.708761 0.0061,-1.441752 -0.260485,-2.102053 m -0.387694,6.051724 c -0.02422,0.260484 -0.04847,0.520973 -0.06664,0.787512 -0.175678,0.04241 -0.351347,0.09087 -0.527025,0.133272 0.599718,0.266545 1.102515,0.702701 1.690119,0.993476 0.539143,0.315005 1.084346,0.63607 1.696182,0.799627 0.01813,-0.920784 -0.02422,-1.841563 -0.06664,-2.762348 -0.89049,0.212024 -1.817332,0.0182 -2.726,0.04847 z" id="path4" inkscape:connector-curvature="0" style="fill:#000000;stroke:none;stroke-width:0.00567917000000000" sodipodi:nodetypes="cccccccccccccccccccccccccccccccccccccccccccccccccccccccccccccccccccccccccccccccccccccccccc"/>
</svg>